<?xml version="1.0" encoding="utf-8"?>
<!-- Generator: Adobe Illustrator 24.3.0, SVG Export Plug-In . SVG Version: 6.00 Build 0)  -->
<svg version="1.0" id="katman_1" xmlns="http://www.w3.org/2000/svg" xmlns:xlink="http://www.w3.org/1999/xlink" x="0px" y="0px"
	 viewBox="0 0 841.89 595.28" style="enable-background:new 0 0 841.89 595.28;" xml:space="preserve">
<style type="text/css">
	.st0{fill:none;stroke:#00CD4D;stroke-width:27.8016;stroke-linecap:round;stroke-miterlimit:10;}
	.st1{fill:none;stroke:#133625;stroke-width:27.8016;stroke-linecap:round;stroke-miterlimit:10;}
	.st2{fill:none;stroke:#133625;stroke-width:27.8016;stroke-linecap:round;stroke-linejoin:round;}
	.st3{fill:#133625;}
</style>
<g>
	<g>
		<line class="st0" x1="101.54" y1="520.75" x2="740.97" y2="520.75"/>
		<path class="st1" d="M740.97,201.04l-8.25-5.75c-20.78-15.61-33.01-40.09-32.99-66.08l0,0l-30.95-20.57V97.99l9.27-9.27
			c6.4-8.43,16.72-12.92,27.25-11.86l0,0"/>
		<path class="st1" d="M410.97,335.13l7.88,38.37c3.76,24.04,14.23,46.53,30.21,64.87l0,0v82.48h54.68v-20.67l-10.29-20.67l0,0
			c-0.01-27.4,3.35-54.69,10.01-81.27l10.47-42.44l0,0c44.05-23.92,76.48-64.73,89.8-113.06l2.32-8.43"/>
		<path class="st1" d="M129.8,268.41c0.04,30.34,7.11,60.25,20.67,87.39l0,0l-35.03,55.6v60.24l24.74,49.58h41.24v-10.84
			l-10.38-20.48v-51.62l82.57-82.48l0,0c50.6,8.62,102.68,12.6,149.85-7.88"/>
		<path class="st1" d="M214.78,397.22c11.08,12.96,27.25,20.44,44.3,20.48c31.16-0.23,56.85-24.5,58.85-55.6"/>
		<path class="st1" d="M414.67,310.39c-2.98,7.44-4.24,15.45-3.71,23.45v1.3"/>
		<line class="st1" x1="256.2" y1="355.8" x2="266.58" y2="335.13"/>
		<path class="st1" d="M586.3,211.42L586.3,211.42c16.4,15.48,38.64,46.34,82.48,34.75l10.29-3.8h45.5l3.61-9.27"/>
		<path class="st2" d="M606.04,73.71c9.59,9.38,16.23,21.37,19.09,34.47H513.93l-206.1,20.67l-125.11-12.23
			c-33.86-3.19-64.43,20.31-70.06,53.84c-6.89,50.56-10.61,101.51-11.12,152.54v12.14"/>
		<circle class="st3" cx="657.57" cy="159.33" r="13.9"/>
	</g>
</g>
</svg>
